<svg class="animated" id="freepik_stories-grammar-correction" xmlns="http://www.w3.org/2000/svg" viewBox="0 0 500 500" version="1.1" xmlns:xlink="http://www.w3.org/1999/xlink" xmlns:svgjs="http://svgjs.com/svgjs"><style>svg#freepik_stories-grammar-correction:not(.animated) .animable {opacity: 0;}svg#freepik_stories-grammar-correction.animated #elqyul6zrd3e {animation: 2.0s 1 forwards cubic-bezier(.36,-0.01,.5,1.38) zoomOut;animation-delay: 0s;}svg#freepik_stories-grammar-correction.animated #freepik--Letters--inject-196 {animation: 2.0s 1 forwards cubic-bezier(.36,-0.01,.5,1.38) zoomOut,1.5s Infinite  linear floating;animation-delay: 0s,2s;}svg#freepik_stories-grammar-correction.animated #freepik--character-3--inject-196 {animation: 2.0s 1 forwards cubic-bezier(.36,-0.01,.5,1.38) slideRight;animation-delay: 0s;}svg#freepik_stories-grammar-correction.animated #freepik--character-2--inject-196 {animation: 2s 1 forwards cubic-bezier(.36,-0.01,.5,1.38) slideUp;animation-delay: 0s;}svg#freepik_stories-grammar-correction.animated #freepik--character-1--inject-196 {animation: 1.6s 1 forwards cubic-bezier(.36,-0.01,.5,1.38) slideLeft;animation-delay: 0s;}            @keyframes zoomOut {                0% {                    opacity: 0;                    transform: scale(1.5);                }                100% {                    opacity: 1;                    transform: scale(1);                }            }                    @keyframes floating {                0% {                    opacity: 1;                    transform: translateY(0px);                }                50% {                    transform: translateY(-10px);                }                100% {                    opacity: 1;                    transform: translateY(0px);                }            }                    @keyframes slideRight {                0% {                    opacity: 0;                    transform: translateX(30px);                }                100% {                    opacity: 1;                    transform: translateX(0);                }            }                    @keyframes slideUp {                0% {                    opacity: 0;                    transform: translateY(30px);                }                100% {                    opacity: 1;                    transform: inherit;                }            }                    @keyframes slideLeft {                0% {                    opacity: 0;                    transform: translateX(-30px);                }                100% {                    opacity: 1;                    transform: translateX(0);                }            }        </style><g id="freepik--background-simple--inject-196" class="animable" style="transform-origin: 252.347px 261.236px;"><path d="M455.38,128.41q-2.49-4.08-5.18-8C426.2,85.63,386.25,61.82,347.43,51a223.83,223.83,0,0,0-51.9-7.83c-114.34-4.1-156.34,88.87-193.18,112.84S9,221,16.08,307c5.38,65.4,43.1,127.93,112,156.38A195.72,195.72,0,0,0,152,471.51a231.61,231.61,0,0,0,50.5,7.66c52.08,2.28,94.38-10.1,135.75-41.28,9.62-7.25,19.18-15.43,31.66-16.32,9.07-.65,17.67,2.56,8.19,11.21-11.14,10.16,1.72,30.15,30,16.26,47.24-23.19,66.68-73.23,75.84-124.11C495.18,262.48,489.73,184.81,455.38,128.41Z" style="fill: rgb(102, 32, 221); transform-origin: 252.347px 261.236px;" id="elo15xzaa6vhh" class="animable"></path><g id="el06g3jpieexm5"><path d="M455.38,128.41q-2.49-4.08-5.18-8C426.2,85.63,386.25,61.82,347.43,51a223.83,223.83,0,0,0-51.9-7.83c-114.34-4.1-156.34,88.87-193.18,112.84S9,221,16.08,307c5.38,65.4,43.1,127.93,112,156.38A195.72,195.72,0,0,0,152,471.51a231.61,231.61,0,0,0,50.5,7.66c52.08,2.28,94.38-10.1,135.75-41.28,9.62-7.25,19.18-15.43,31.66-16.32,9.07-.65,17.67,2.56,8.19,11.21-11.14,10.16,1.72,30.15,30,16.26,47.24-23.19,66.68-73.23,75.84-124.11C495.18,262.48,489.73,184.81,455.38,128.41Z" style="fill: rgb(255, 255, 255); opacity: 0.7; transform-origin: 252.347px 261.236px;" class="animable"></path></g></g><g id="freepik--plants-2--inject-196" class="animable" style="transform-origin: 269.713px 436.444px;"><g id="elbsgtg6zq3l"><path d="M152.71,444.74S124,407.32,114.42,406.45s-5.22,9.57,4.35,17.4S137,439.51,137,439.51s-30.45-14.79-40-8.7,20.88,13.06,20.88,13.06-27,5.22-20.88,9.57,29.58-1.74,29.58-1.74l-15.66,14.79h57.43Z" style="fill: rgb(38, 50, 56); stroke: rgb(38, 50, 56); stroke-linecap: round; stroke-linejoin: round; opacity: 0.3; transform-origin: 131.747px 436.445px;" class="animable"></path></g><g id="ellaycu09m5r"><path d="M386.77,444.74s28.72-37.42,38.29-38.29,5.22,9.57-4.35,17.4-18.28,15.66-18.28,15.66,30.46-14.79,40-8.7-20.88,13.06-20.88,13.06,27,5.22,20.88,9.57-29.58-1.74-29.58-1.74l15.66,14.79H371.11Z" style="fill: rgb(38, 50, 56); stroke: rgb(38, 50, 56); stroke-linecap: round; stroke-linejoin: round; opacity: 0.3; transform-origin: 407.696px 436.444px;" class="animable"></path></g></g><g id="freepik--plants-1--inject-196" class="animable" style="transform-origin: 258.775px 115.921px;"><g id="el1o2tkw5ehp"><g style="opacity: 0.3; transform-origin: 112.192px 114.423px;" class="animable"><path d="M118.92,85.9c.07,0-2.67-4.46-2.88-4.72-2.37-3-8.74-7.43-12.76-5.93a5.08,5.08,0,0,0-2.58,7.11c1.34,2.72,4.78,4.19,7.59,4.73C111.59,87.73,118.91,85.9,118.92,85.9Z" id="el1h0vmi5oqzq" class="animable" style="transform-origin: 109.51px 81.0871px;"></path><path d="M64.94,139.81c3.11-1.29,8.21-6.85,8.21-6.86s-4.69-2.24-5-2.35c-3.65-1.2-11.39-1.37-13.92,2.1A5.08,5.08,0,0,0,56,140.05C58.62,141.58,62.3,140.91,64.94,139.81Z" id="elbcchjzzws1k" class="animable" style="transform-origin: 63.2422px 135.383px;"></path><path d="M50.29,105.92a5.08,5.08,0,0,1,6.92-3.06c2.8,1.15,4.51,4.47,5.24,7.24s-.15,8.85-.39,10.34c.8,1,1.68,2,2.67,3.15,1.76,2,3.77,4.17,6.11,6.43.62.6,1.31,1.22,2,1.83-.9-1.26-2.12-3-2.21-3.2-1.82-3.38-3.34-11-.36-14.08a5.09,5.09,0,0,1,7.55.47c2,2.32,1.94,6,1.32,8.85s-4.33,7.94-5.15,9c1.48,1.34,3,2.69,4.75,4a66.27,66.27,0,0,0,9.79,6.36l.15-.19c-1-1.07-3-3.36-3.11-3.57-2.17-3.16-4.52-10.55-1.9-13.95a5.09,5.09,0,0,1,7.56-.36c2.2,2.08,2.59,5.8,2.28,8.64-.36,3.29-4.11,9.53-4.25,9.76A90.28,90.28,0,0,0,100,148.07c2.71.94,5.49,1.79,8.29,2.61-.7-.73-3.32-3.74-3.48-4-2.18-3.16-4.53-10.54-1.91-13.95a5.09,5.09,0,0,1,7.56-.36c2.21,2.08,2.6,5.8,2.28,8.65-.35,3.2-3.91,9.2-4.22,9.7l3.82,1.12c4.17,1.18,8.36,2.35,12.46,3.63,1.42.45,2.8.94,4.18,1.42-1-1.13-2.83-3.22-3-3.42-2.17-3.16-4.52-10.54-1.9-13.94a5.08,5.08,0,0,1,7.56-.37c2.2,2.09,2.59,5.8,2.28,8.65s-3.2,8-4,9.4c2.3.82,4.57,1.69,6.76,2.65.93.43,1.91.81,2.79,1.28l2.64,1.35c1.78,1,3.43,1.88,5.05,2.84.83.48,1.6,1,2.4,1.42-1.21-1-3.09-2.59-3.25-2.75-2.63-2.8-6.07-9.74-4-13.5a5.08,5.08,0,0,1,7.41-1.5,5.38,5.38,0,0,1,.86.72,19.78,19.78,0,0,1,8.77,4.74c.17.17,2,2.46,2.89,3.65-.5-1.13-1-2.24-1.55-3.4-.77-1.67-1.64-3.41-2.48-5.11l-1.4-2.61c-.46-.9-1-1.7-1.52-2.56-.77-1.25-1.62-2.5-2.48-3.76-1.65.89-6.55,3.42-9.32,3.63s-6.56-.29-8.57-2.56a5.08,5.08,0,0,1,.61-7.54c3.48-2.51,10.79.08,13.88,2.35.1.08.7.63,1.41,1.28-.87-1.19-1.73-2.39-2.66-3.57-2.61-3.36-5.37-6.69-8.13-10l-1.71-2.11c-1.39.76-6.67,3.54-9.57,3.77s-6.56-.29-8.57-2.56a5.08,5.08,0,0,1,.6-7.54c3.49-2.51,10.79.07,13.88,2.35.11.08.83.73,1.63,1.48-1.47-1.85-2.92-3.7-4.29-5.59a89.35,89.35,0,0,1-6.47-10.12c-.49.28-6.62,3.66-9.85,3.91-2.85.22-6.55-.29-8.56-2.56a5.08,5.08,0,0,1,.6-7.54c3.49-2.51,10.79.08,13.88,2.35.22.16,2.8,2.56,3.69,3.45,0,0,0-.09-.07-.13a65.11,65.11,0,0,1-4.46-10.91,87.19,87.19,0,0,1-2.57-10.21c-.65-3.2-1-6.17-1.36-8.79-.17-1.43-.29-2.73-.4-4l-.06.07c0,.05-2.56-4.52-2.69-4.83-1.45-3.55-2.16-11.27,1.12-14A5.09,5.09,0,0,1,122.22,52c1.71,2.51,1.3,6.22.38,8.93s-5,7.3-6,8.41c.13,1.26.29,2.61.49,4.1.38,2.61.84,5.56,1.55,8.73.19.85.42,1.75.64,2.63-.06-1.56-.1-3.69-.08-3.9.35-3.82,3.27-11,7.47-11.93a5.08,5.08,0,0,1,6,4.55c.36,3-1.72,6.12-3.78,8.11s-8,4.23-9.28,4.69c.5,1.94,1.06,3.92,1.76,6A65.52,65.52,0,0,0,126,103l.23-.07c-.22-1.43-.62-4.44-.62-4.69-.07-3.84,2-11.29,6.11-12.69a5.09,5.09,0,0,1,6.5,3.87c.69,3-1,6.27-2.87,8.47-2.11,2.54-8.68,5.68-8.93,5.8a90.68,90.68,0,0,0,6.48,9.63c1.74,2.29,3.6,4.52,5.48,6.75-.18-1-.71-5-.72-5.23-.07-3.84,2.05-11.29,6.11-12.69a5.08,5.08,0,0,1,6.5,3.87c.69,3-1,6.27-2.86,8.47-2.06,2.48-8.34,5.51-8.88,5.77.86,1,1.71,2,2.58,3,2.82,3.29,5.67,6.58,8.38,9.91.94,1.15,1.82,2.32,2.71,3.49-.23-1.51-.59-4.25-.6-4.49-.07-3.84,2.05-11.29,6.11-12.68a5.07,5.07,0,0,1,6.5,3.86c.69,3-1,6.27-2.86,8.47s-7.07,4.88-8.55,5.61c1.46,2,2.87,3.93,4.17,5.94.54.88,1.15,1.74,1.62,2.61l1.46,2.58c.94,1.8,1.82,3.47,2.65,5.16.42.86.8,1.67,1.21,2.51-.46-1.49-1.15-3.87-1.19-4.09-.65-3.78.31-11.47,4.12-13.46a5.07,5.07,0,0,1,7,2.84c1.13,2.81-.07,6.35-1.55,8.8-1.63,2.71-7.17,6.55-7.85,7,1,2,1.9,4,2.74,5.94,1.55,3.49,2.86,6.65,4,9.41l-2.72.62c-1-2.66-2.19-5.69-3.58-9-.72-1.73-1.51-3.54-2.34-5.4-.76.28-6.67,2.42-9.91,2.36a56.24,56.24,0,0,1-2.07,6.15c1.94,1.17,3.82,2.33,5.56,3.45,2.16,1.38,4.16,2.7,6,3.92l-3.54.82q-1.81-1.26-3.82-2.61c-1.55-1-3.21-2.12-4.93-3.22-.5.68-4.51,6.09-7.26,7.63-2.5,1.4-6.08,2.48-8.86,1.26a5.09,5.09,0,0,1-2.61-7.1c2.12-3.74,9.83-4.45,13.59-3.68.24,0,3,1,4.43,1.45-1-.66-2.07-1.31-3.17-2-1.57-1-3.25-1.94-4.88-2.89l-2.62-1.4c-.88-.5-1.77-.86-2.67-1.31-1.34-.61-2.74-1.19-4.14-1.76-.89,1.66-3.59,6.47-5.78,8.17s-5.63,3.38-8.56,2.59a5.08,5.08,0,0,1-3.65-6.62c1.52-4,9-5.89,12.87-5.7l1.89.29c-1.39-.51-2.77-1-4.19-1.51-4-1.36-8.18-2.62-12.33-3.9l-2.58-.81c-.75,1.39-3.62,6.63-5.91,8.42s-5.63,3.37-8.56,2.59a5.08,5.08,0,0,1-3.66-6.62c1.52-4,9-5.9,12.87-5.7.14,0,1.1.16,2.18.34-2.25-.73-4.48-1.48-6.66-2.3a89.44,89.44,0,0,1-11-4.86c-.26.49-3.51,6.7-6.06,8.69-2.26,1.76-5.62,3.37-8.55,2.59A5.09,5.09,0,0,1,70.3,149c1.52-4,9-5.89,12.87-5.69.27,0,3.75.59,5,.83l-.12-.06a65.84,65.84,0,0,1-9.75-6.63,91.74,91.74,0,0,1-7.78-7.11c-2.3-2.31-4.26-4.57-6-6.58-.92-1.1-1.75-2.12-2.51-3.08,0,0,0,.09,0,.09s-4.63-2.35-4.91-2.54C53.92,116.08,49.07,110,50.29,105.92Z" id="eleqe04gee5il" class="animable" style="transform-origin: 112.192px 114.423px;"></path><g id="elpyh2ujqk93"><path d="M64.94,139.81c3.11-1.29,8.21-6.85,8.21-6.86s-4.69-2.24-5-2.35c-3.65-1.2-11.39-1.37-13.92,2.1A5.08,5.08,0,0,0,56,140.05C58.62,141.58,62.3,140.91,64.94,139.81Z" style="opacity: 0.3; transform-origin: 63.2422px 135.383px;" class="animable"></path></g><g id="el3qtfmidggdk"><path d="M118.92,85.9c.07,0-2.67-4.46-2.88-4.72-2.37-3-8.74-7.43-12.76-5.93a5.08,5.08,0,0,0-2.58,7.11c1.34,2.72,4.78,4.19,7.59,4.73C111.59,87.73,118.91,85.9,118.92,85.9Z" style="opacity: 0.3; transform-origin: 109.51px 81.0871px;" class="animable"></path></g><g id="eltki5i53ljpi"><path d="M50.29,105.92a5.08,5.08,0,0,1,6.92-3.06c2.8,1.15,4.51,4.47,5.24,7.24s-.15,8.85-.39,10.34c.8,1,1.68,2,2.67,3.15,1.76,2,3.77,4.17,6.11,6.43.62.6,1.31,1.22,2,1.83-.9-1.26-2.12-3-2.21-3.2-1.82-3.38-3.34-11-.36-14.08a5.09,5.09,0,0,1,7.55.47c2,2.32,1.94,6,1.32,8.85s-4.33,7.94-5.15,9c1.48,1.34,3,2.69,4.75,4a66.27,66.27,0,0,0,9.79,6.36l.15-.19c-1-1.07-3-3.36-3.11-3.57-2.17-3.16-4.52-10.55-1.9-13.95a5.09,5.09,0,0,1,7.56-.36c2.2,2.08,2.59,5.8,2.28,8.64-.36,3.29-4.11,9.53-4.25,9.76A90.28,90.28,0,0,0,100,148.07c2.71.94,5.49,1.79,8.29,2.61-.7-.73-3.32-3.74-3.48-4-2.18-3.16-4.53-10.54-1.91-13.95a5.09,5.09,0,0,1,7.56-.36c2.21,2.08,2.6,5.8,2.28,8.65-.35,3.2-3.91,9.2-4.22,9.7l3.82,1.12c4.17,1.18,8.36,2.35,12.46,3.63,1.42.45,2.8.94,4.18,1.42-1-1.13-2.83-3.22-3-3.42-2.17-3.16-4.52-10.54-1.9-13.94a5.08,5.08,0,0,1,7.56-.37c2.2,2.09,2.59,5.8,2.28,8.65s-3.2,8-4,9.4c2.3.82,4.57,1.69,6.76,2.65.93.43,1.91.81,2.79,1.28l2.64,1.35c1.78,1,3.43,1.88,5.05,2.84.83.48,1.6,1,2.4,1.42-1.21-1-3.09-2.59-3.25-2.75-2.63-2.8-6.07-9.74-4-13.5a5.08,5.08,0,0,1,7.41-1.5,5.38,5.38,0,0,1,.86.72,19.78,19.78,0,0,1,8.77,4.74c.17.17,2,2.46,2.89,3.65-.5-1.13-1-2.24-1.55-3.4-.77-1.67-1.64-3.41-2.48-5.11l-1.4-2.61c-.46-.9-1-1.7-1.52-2.56-.77-1.25-1.62-2.5-2.48-3.76-1.65.89-6.55,3.42-9.32,3.63s-6.56-.29-8.57-2.56a5.08,5.08,0,0,1,.61-7.54c3.48-2.51,10.79.08,13.88,2.35.1.08.7.63,1.41,1.28-.87-1.19-1.73-2.39-2.66-3.57-2.61-3.36-5.37-6.69-8.13-10l-1.71-2.11c-1.39.76-6.67,3.54-9.57,3.77s-6.56-.29-8.57-2.56a5.08,5.08,0,0,1,.6-7.54c3.49-2.51,10.79.07,13.88,2.35.11.08.83.73,1.63,1.48-1.47-1.85-2.92-3.7-4.29-5.59a89.35,89.35,0,0,1-6.47-10.12c-.49.28-6.62,3.66-9.85,3.91-2.85.22-6.55-.29-8.56-2.56a5.08,5.08,0,0,1,.6-7.54c3.49-2.51,10.79.08,13.88,2.35.22.16,2.8,2.56,3.69,3.45,0,0,0-.09-.07-.13a65.11,65.11,0,0,1-4.46-10.91,87.19,87.19,0,0,1-2.57-10.21c-.65-3.2-1-6.17-1.36-8.79-.17-1.43-.29-2.73-.4-4l-.06.07c0,.05-2.56-4.52-2.69-4.83-1.45-3.55-2.16-11.27,1.12-14A5.09,5.09,0,0,1,122.22,52c1.71,2.51,1.3,6.22.38,8.93s-5,7.3-6,8.41c.13,1.26.29,2.61.49,4.1.38,2.61.84,5.56,1.55,8.73.19.85.42,1.75.64,2.63-.06-1.56-.1-3.69-.08-3.9.35-3.82,3.27-11,7.47-11.93a5.08,5.08,0,0,1,6,4.55c.36,3-1.72,6.12-3.78,8.11s-8,4.23-9.28,4.69c.5,1.94,1.06,3.92,1.76,6A65.52,65.52,0,0,0,126,103l.23-.07c-.22-1.43-.62-4.44-.62-4.69-.07-3.84,2-11.29,6.11-12.69a5.09,5.09,0,0,1,6.5,3.87c.69,3-1,6.27-2.87,8.47-2.11,2.54-8.68,5.68-8.93,5.8a90.68,90.68,0,0,0,6.48,9.63c1.74,2.29,3.6,4.52,5.48,6.75-.18-1-.71-5-.72-5.23-.07-3.84,2.05-11.29,6.11-12.69a5.08,5.08,0,0,1,6.5,3.87c.69,3-1,6.27-2.86,8.47-2.06,2.48-8.34,5.51-8.88,5.77.86,1,1.71,2,2.58,3,2.82,3.29,5.67,6.58,8.38,9.91.94,1.15,1.82,2.32,2.71,3.49-.23-1.51-.59-4.25-.6-4.49-.07-3.84,2.05-11.29,6.11-12.68a5.07,5.07,0,0,1,6.5,3.86c.69,3-1,6.27-2.86,8.47s-7.07,4.88-8.55,5.61c1.46,2,2.87,3.93,4.17,5.94.54.88,1.15,1.74,1.62,2.61l1.46,2.58c.94,1.8,1.82,3.47,2.65,5.16.42.86.8,1.67,1.21,2.51-.46-1.49-1.15-3.87-1.19-4.09-.65-3.78.31-11.47,4.12-13.46a5.07,5.07,0,0,1,7,2.84c1.13,2.81-.07,6.35-1.55,8.8-1.63,2.71-7.17,6.55-7.85,7,1,2,1.9,4,2.74,5.94,1.55,3.49,2.86,6.65,4,9.41l-2.72.62c-1-2.66-2.19-5.69-3.58-9-.72-1.73-1.51-3.54-2.34-5.4-.76.28-6.67,2.42-9.91,2.36a56.24,56.24,0,0,1-2.07,6.15c1.94,1.17,3.82,2.33,5.56,3.45,2.16,1.38,4.16,2.7,6,3.92l-3.54.82q-1.81-1.26-3.82-2.61c-1.55-1-3.21-2.12-4.93-3.22-.5.68-4.51,6.09-7.26,7.63-2.5,1.4-6.08,2.48-8.86,1.26a5.09,5.09,0,0,1-2.61-7.1c2.12-3.74,9.83-4.45,13.59-3.68.24,0,3,1,4.43,1.45-1-.66-2.07-1.31-3.17-2-1.57-1-3.25-1.94-4.88-2.89l-2.62-1.4c-.88-.5-1.77-.86-2.67-1.31-1.34-.61-2.74-1.19-4.14-1.76-.89,1.66-3.59,6.47-5.78,8.17s-5.63,3.38-8.56,2.59a5.08,5.08,0,0,1-3.65-6.62c1.52-4,9-5.89,12.87-5.7l1.89.29c-1.39-.51-2.77-1-4.19-1.51-4-1.36-8.18-2.62-12.33-3.9l-2.58-.81c-.75,1.39-3.62,6.63-5.91,8.42s-5.63,3.37-8.56,2.59a5.08,5.08,0,0,1-3.66-6.62c1.52-4,9-5.9,12.87-5.7.14,0,1.1.16,2.18.34-2.25-.73-4.48-1.48-6.66-2.3a89.44,89.44,0,0,1-11-4.86c-.26.49-3.51,6.7-6.06,8.69-2.26,1.76-5.62,3.37-8.55,2.59A5.09,5.09,0,0,1,70.3,149c1.52-4,9-5.89,12.87-5.69.27,0,3.75.59,5,.83l-.12-.06a65.84,65.84,0,0,1-9.75-6.63,91.74,91.74,0,0,1-7.78-7.11c-2.3-2.31-4.26-4.57-6-6.58-.92-1.1-1.75-2.12-2.51-3.08,0,0,0,.09,0,.09s-4.63-2.35-4.91-2.54C53.92,116.08,49.07,110,50.29,105.92Z" style="opacity: 0.3; transform-origin: 112.192px 114.423px;" class="animable"></path></g></g></g><g id="el174bs3ahrm3"><g style="opacity: 0.3; transform-origin: 406.214px 115.921px;" class="animable"><path d="M388.34,84c-.08,0,1.69-5.2,1.84-5.52,1.72-3.64,7.21-9.67,11.69-9.08a5.34,5.34,0,0,1,4.31,6.68c-.73,3.11-3.91,5.42-6.66,6.64C396.28,84.19,388.35,84,388.34,84Z" id="elkwqaqyiihwm" class="animable" style="transform-origin: 397.353px 76.6839px;"></path><path d="M456.36,126.6c-3.49-.6-10-5.1-10-5.1s4.28-3.41,4.58-3.59c3.45-2.09,11.35-4.09,14.76-1.13a5.35,5.35,0,0,1-.09,8C463.25,126.92,459.33,127.1,456.36,126.6Z" id="elfrrewb77ag" class="animable" style="transform-origin: 456.906px 121.058px;"></path><path d="M463.4,88.41a5.35,5.35,0,0,0-7.81-1.52c-2.61,1.84-3.57,5.65-3.67,8.66s2.24,9,2.84,10.51c-.6,1.19-1.25,2.47-2,3.85-1.34,2.44-2.88,5.17-4.75,8-.49.76-1.06,1.57-1.59,2.35.62-1.51,1.45-3.6,1.51-3.81,1.06-3.89.83-12-2.95-14.51a5.35,5.35,0,0,0-7.63,2.26c-1.46,2.83-.57,6.66.73,9.38s6.31,7.12,7.41,8c-1.21,1.72-2.49,3.46-3.93,5.2a68.71,68.71,0,0,1-8.55,8.83l-.19-.17c.74-1.32,2.24-4.14,2.34-4.39,1.49-3.75,2.16-11.87-1.33-14.74A5.34,5.34,0,0,0,426,117.8c-1.77,2.65-1.3,6.55-.31,9.4,1.15,3.28,6.46,8.79,6.66,9a94.33,94.33,0,0,1-9.94,7.1c-2.55,1.61-5.21,3.13-7.88,4.63.54-.92,2.52-4.61,2.63-4.9,1.49-3.75,2.16-11.87-1.33-14.74A5.34,5.34,0,0,0,408,129.7c-1.77,2.65-1.3,6.55-.31,9.4,1.12,3.2,6.18,8.51,6.61,9-1.21.68-2.42,1.37-3.65,2-4,2.2-8,4.38-11.91,6.66-1.35.79-2.65,1.62-4,2.44.78-1.4,2.15-4,2.24-4.2,1.49-3.75,2.16-11.87-1.33-14.75a5.34,5.34,0,0,0-7.83,1.41c-1.77,2.65-1.3,6.55-.3,9.4s5.16,7.41,6.35,8.68c-2.17,1.39-4.29,2.81-6.3,4.31-.86.66-1.78,1.29-2.56,2l-2.4,2c-1.58,1.43-3.06,2.75-4.51,4.11-.73.68-1.41,1.34-2.11,2,1-1.3,2.55-3.38,2.67-3.59,2-3.48,3.93-11.41.92-14.77a5.34,5.34,0,0,0-7.95.2,6.09,6.09,0,0,0-.72,1,20.71,20.71,0,0,0-7.86,6.91c-.14.22-1.47,3-2.11,4.43.25-1.27.5-2.53.79-3.85.4-1.9.88-3.89,1.34-5.82.27-1,.55-2,.82-3s.64-2,.95-3c.5-1.46,1.08-3,1.66-4.43,1.9.52,7.52,1.95,10.41,1.52s6.65-1.84,8.18-4.64a5.34,5.34,0,0,0-2.4-7.59c-4.16-1.75-11,2.62-13.67,5.68-.08.1-.57.8-1.14,1.65.61-1.43,1.21-2.86,1.87-4.29,1.89-4.06,3.94-8.13,6-12.22.43-.85.84-1.71,1.26-2.56,1.6.45,7.68,2,10.7,1.6s6.66-1.84,8.18-4.64a5.35,5.35,0,0,0-2.39-7.59c-4.17-1.75-11.05,2.62-13.68,5.68-.09.11-.67,1-1.31,1.9,1.07-2.23,2.11-4.48,3.08-6.74a94,94,0,0,0,4.25-11.89c.56.17,7.65,2.19,11,1.69,3-.44,6.65-1.84,8.18-4.64a5.35,5.35,0,0,0-2.4-7.59c-4.16-1.75-11,2.62-13.67,5.68-.19.22-2.27,3.28-3,4.4,0,0,0-.1,0-.14a70.28,70.28,0,0,0,2-12.24,93,93,0,0,0,.22-11.08c-.09-3.43-.38-6.56-.67-9.33-.16-1.49-.34-2.86-.52-4.14l.07.06c.07,0,1.57-5.24,1.63-5.58.65-4-.44-12.06-4.46-14.12a5.35,5.35,0,0,0-7.35,3c-1.16,3,.14,6.68,1.72,9.25s6.85,6.3,8.16,7.19c.16,1.33.32,2.75.46,4.32.22,2.77.45,5.9.47,9.32,0,.91,0,1.89,0,2.84-.32-1.61-.78-3.81-.85-4-1.25-3.84-5.94-10.51-10.46-10.48a5.34,5.34,0,0,0-5.11,6.09c.33,3.17,3.19,5.87,5.78,7.42s9.19,2.46,10.62,2.63c-.06,2.1-.17,4.26-.41,6.51a69.32,69.32,0,0,1-2.26,12.07l-.26,0c-.1-1.51-.41-4.69-.46-5-.83-3.95-4.75-11.09-9.25-11.56a5.34,5.34,0,0,0-5.75,5.49c0,3.19,2.53,6.18,4.93,8,2.76,2.1,10.24,3.77,10.52,3.84a94.46,94.46,0,0,1-4.37,11.4c-1.25,2.75-2.62,5.48-4,8.21-.05-1.07-.44-5.24-.5-5.54-.83-4-4.75-11.09-9.25-11.56a5.34,5.34,0,0,0-5.75,5.49c0,3.19,2.53,6.19,4.93,8,2.7,2.06,9.85,3.69,10.45,3.83-.63,1.24-1.27,2.47-1.92,3.71-2.12,4-4.26,8.08-6.26,12.13-.69,1.4-1.31,2.81-1.95,4.22-.12-1.6-.4-4.5-.45-4.75-.83-3.95-4.75-11.09-9.25-11.56a5.34,5.34,0,0,0-5.75,5.49c0,3.19,2.53,6.19,4.93,8s8.39,3.34,10.08,3.74c-1,2.35-2,4.7-2.87,7.07-.35,1-.77,2.05-1.05,3.06s-.6,2-.89,3c-.54,2.06-1.05,4-1.5,5.91-.23,1-.43,1.9-.65,2.85.12-1.64.27-4.23.26-4.47-.23-4-3-11.68-7.39-12.83a5.34,5.34,0,0,0-6.52,4.56c-.5,3.15,1.57,6.5,3.66,8.66,2.31,2.39,8.89,5,9.7,5.35-.51,2.33-1,4.6-1.41,6.73-.77,3.94-1.37,7.5-1.85,10.58h2.94c.4-3,.9-6.35,1.55-10.09.33-1.94.71-4,1.12-6.09.85.11,7.41.91,10.72.09a58,58,0,0,0,3.57,5.82c-1.72,1.65-3.37,3.28-4.9,4.84-1.89,1.92-3.62,3.74-5.19,5.43h3.82q1.56-1.73,3.31-3.58c1.34-1.43,2.79-2.93,4.29-4.45.67.58,6.06,5.17,9.24,6.1,2.89.85,6.81,1.12,9.37-.78a5.36,5.36,0,0,0,1-7.9c-3.05-3.33-11.13-2.25-14.8-.57-.23.11-2.87,1.69-4.19,2.52.91-.91,1.81-1.83,2.78-2.77,1.37-1.36,2.88-2.75,4.32-4.11l2.35-2.06c.79-.71,1.62-1.3,2.44-2,1.22-.95,2.52-1.87,3.82-2.78,1.31,1.48,5.2,5.78,7.85,7s6.56,2.14,9.38.64a5.34,5.34,0,0,0,2.19-7.65c-2.51-3.75-10.66-3.91-14.54-2.8-.12,0-.92.35-1.86.74,1.3-.86,2.59-1.72,3.93-2.55,3.81-2.34,7.77-4.6,11.72-6.89l2.46-1.44c1.09,1.25,5.27,5.95,8,7.24s6.57,2.13,9.39.64a5.34,5.34,0,0,0,2.18-7.65c-2.5-3.76-10.65-3.91-14.53-2.81-.14,0-1.09.42-2.15.86,2.13-1.27,4.24-2.57,6.29-3.92a95.27,95.27,0,0,0,10.1-7.57c.38.44,5.17,6,8.26,7.48,2.73,1.27,6.56,2.13,9.38.64a5.35,5.35,0,0,0,2.19-7.65c-2.51-3.76-10.66-3.91-14.54-2.81-.28.08-3.7,1.49-4.91,2l.12-.09a70.41,70.41,0,0,0,8.42-9.1,93.44,93.44,0,0,0,6.3-9.12c1.82-2.91,3.3-5.68,4.59-8.15.69-1.34,1.29-2.58,1.84-3.74l0,.09c0,.07,4.19-3.5,4.43-3.76C462.07,99.68,465.62,92.34,463.4,88.41Z" id="el7e0u0kzbyha" class="animable" style="transform-origin: 404.535px 115.921px;"></path><g id="elrqc1lff0cm"><path d="M456.36,126.6c-3.49-.6-10-5.1-10-5.1s4.28-3.41,4.58-3.59c3.45-2.09,11.35-4.09,14.76-1.13a5.35,5.35,0,0,1-.09,8C463.25,126.92,459.33,127.1,456.36,126.6Z" style="opacity: 0.3; transform-origin: 456.906px 121.058px;" class="animable"></path></g><g id="elcgesschajo"><path d="M388.34,84c-.08,0,1.69-5.2,1.84-5.52,1.72-3.64,7.21-9.67,11.69-9.08a5.34,5.34,0,0,1,4.31,6.68c-.73,3.11-3.91,5.42-6.66,6.64C396.28,84.19,388.35,84,388.34,84Z" style="opacity: 0.3; transform-origin: 397.353px 76.6839px;" class="animable"></path></g><g id="elh55kovozvc"><path d="M463.4,88.41a5.35,5.35,0,0,0-7.81-1.52c-2.61,1.84-3.57,5.65-3.67,8.66s2.24,9,2.84,10.51c-.6,1.19-1.25,2.47-2,3.85-1.34,2.44-2.88,5.17-4.75,8-.49.76-1.06,1.57-1.59,2.35.62-1.51,1.45-3.6,1.51-3.81,1.06-3.89.83-12-2.95-14.51a5.35,5.35,0,0,0-7.63,2.26c-1.46,2.83-.57,6.66.73,9.38s6.31,7.12,7.41,8c-1.21,1.72-2.49,3.46-3.93,5.2a68.71,68.71,0,0,1-8.55,8.83l-.19-.17c.74-1.32,2.24-4.14,2.34-4.39,1.49-3.75,2.16-11.87-1.33-14.74A5.34,5.34,0,0,0,426,117.8c-1.77,2.65-1.3,6.55-.31,9.4,1.15,3.28,6.46,8.79,6.66,9a94.33,94.33,0,0,1-9.94,7.1c-2.55,1.61-5.21,3.13-7.88,4.63.54-.92,2.52-4.61,2.63-4.9,1.49-3.75,2.16-11.87-1.33-14.74A5.34,5.34,0,0,0,408,129.7c-1.77,2.65-1.3,6.55-.31,9.4,1.12,3.2,6.18,8.51,6.61,9-1.21.68-2.42,1.37-3.65,2-4,2.2-8,4.38-11.91,6.66-1.35.79-2.65,1.62-4,2.44.78-1.4,2.15-4,2.24-4.2,1.49-3.75,2.16-11.87-1.33-14.75a5.34,5.34,0,0,0-7.83,1.41c-1.77,2.65-1.3,6.55-.3,9.4s5.16,7.41,6.35,8.68c-2.17,1.39-4.29,2.81-6.3,4.31-.86.66-1.78,1.29-2.56,2l-2.4,2c-1.58,1.43-3.06,2.75-4.51,4.11-.73.68-1.41,1.34-2.11,2,1-1.3,2.55-3.38,2.67-3.59,2-3.48,3.93-11.41.92-14.77a5.34,5.34,0,0,0-7.95.2,6.09,6.09,0,0,0-.72,1,20.71,20.71,0,0,0-7.86,6.91c-.14.22-1.47,3-2.11,4.43.25-1.27.5-2.53.79-3.85.4-1.9.88-3.89,1.34-5.82.27-1,.55-2,.82-3s.64-2,.95-3c.5-1.46,1.08-3,1.66-4.43,1.9.52,7.52,1.95,10.41,1.52s6.65-1.84,8.18-4.64a5.34,5.34,0,0,0-2.4-7.59c-4.16-1.75-11,2.62-13.67,5.68-.08.1-.57.8-1.14,1.65.61-1.43,1.21-2.86,1.87-4.29,1.89-4.06,3.94-8.13,6-12.22.43-.85.84-1.71,1.26-2.56,1.6.45,7.68,2,10.7,1.6s6.66-1.84,8.18-4.64a5.35,5.35,0,0,0-2.39-7.59c-4.17-1.75-11.05,2.62-13.68,5.68-.09.11-.67,1-1.31,1.9,1.07-2.23,2.11-4.48,3.08-6.74a94,94,0,0,0,4.25-11.89c.56.17,7.65,2.19,11,1.69,3-.44,6.65-1.84,8.18-4.64a5.35,5.35,0,0,0-2.4-7.59c-4.16-1.75-11,2.62-13.67,5.68-.19.22-2.27,3.28-3,4.4,0,0,0-.1,0-.14a70.28,70.28,0,0,0,2-12.24,93,93,0,0,0,.22-11.08c-.09-3.43-.38-6.56-.67-9.33-.16-1.49-.34-2.86-.52-4.14l.07.06c.07,0,1.57-5.24,1.63-5.58.65-4-.44-12.06-4.46-14.12a5.35,5.35,0,0,0-7.35,3c-1.16,3,.14,6.68,1.72,9.25s6.85,6.3,8.16,7.19c.16,1.33.32,2.75.46,4.32.22,2.77.45,5.9.47,9.32,0,.91,0,1.89,0,2.84-.32-1.61-.78-3.81-.85-4-1.25-3.84-5.94-10.51-10.46-10.48a5.34,5.34,0,0,0-5.11,6.09c.33,3.17,3.19,5.87,5.78,7.42s9.19,2.46,10.62,2.63c-.06,2.1-.17,4.26-.41,6.51a69.32,69.32,0,0,1-2.26,12.07l-.26,0c-.1-1.51-.41-4.69-.46-5-.83-3.95-4.75-11.09-9.25-11.56a5.34,5.34,0,0,0-5.75,5.49c0,3.19,2.53,6.18,4.93,8,2.76,2.1,10.24,3.77,10.52,3.84a94.46,94.46,0,0,1-4.37,11.4c-1.25,2.75-2.62,5.48-4,8.21-.05-1.07-.44-5.24-.5-5.54-.83-4-4.75-11.09-9.25-11.56a5.34,5.34,0,0,0-5.75,5.49c0,3.19,2.53,6.19,4.93,8,2.7,2.06,9.85,3.69,10.45,3.83-.63,1.24-1.27,2.47-1.92,3.71-2.12,4-4.26,8.08-6.26,12.13-.69,1.4-1.31,2.81-1.95,4.22-.12-1.6-.4-4.5-.45-4.75-.83-3.95-4.75-11.09-9.25-11.56a5.34,5.34,0,0,0-5.75,5.49c0,3.19,2.53,6.19,4.93,8s8.39,3.34,10.08,3.74c-1,2.35-2,4.7-2.87,7.07-.35,1-.77,2.05-1.05,3.06s-.6,2-.89,3c-.54,2.06-1.05,4-1.5,5.91-.23,1-.43,1.9-.65,2.85.12-1.64.27-4.23.26-4.47-.23-4-3-11.68-7.39-12.83a5.34,5.34,0,0,0-6.52,4.56c-.5,3.15,1.57,6.5,3.66,8.66,2.31,2.39,8.89,5,9.7,5.35-.51,2.33-1,4.6-1.41,6.73-.77,3.94-1.37,7.5-1.85,10.58h2.94c.4-3,.9-6.35,1.55-10.09.33-1.94.71-4,1.12-6.09.85.11,7.41.91,10.72.09a58,58,0,0,0,3.57,5.82c-1.72,1.65-3.37,3.28-4.9,4.84-1.89,1.92-3.62,3.74-5.19,5.43h3.82q1.56-1.73,3.31-3.58c1.34-1.43,2.79-2.93,4.29-4.45.67.58,6.06,5.17,9.24,6.1,2.89.85,6.81,1.12,9.37-.78a5.36,5.36,0,0,0,1-7.9c-3.05-3.33-11.13-2.25-14.8-.57-.23.11-2.87,1.69-4.19,2.52.91-.91,1.81-1.83,2.78-2.77,1.37-1.36,2.88-2.75,4.32-4.11l2.35-2.06c.79-.71,1.62-1.3,2.44-2,1.22-.95,2.52-1.87,3.82-2.78,1.31,1.48,5.2,5.78,7.85,7s6.56,2.14,9.38.64a5.34,5.34,0,0,0,2.19-7.65c-2.51-3.75-10.66-3.91-14.54-2.8-.12,0-.92.35-1.86.74,1.3-.86,2.59-1.72,3.93-2.55,3.81-2.34,7.77-4.6,11.72-6.89l2.46-1.44c1.09,1.25,5.27,5.95,8,7.24s6.57,2.13,9.39.64a5.34,5.34,0,0,0,2.18-7.65c-2.5-3.76-10.65-3.91-14.53-2.81-.14,0-1.09.42-2.15.86,2.13-1.27,4.24-2.57,6.29-3.92a95.27,95.27,0,0,0,10.1-7.57c.38.44,5.17,6,8.26,7.48,2.73,1.27,6.56,2.13,9.38.64a5.35,5.35,0,0,0,2.19-7.65c-2.51-3.76-10.66-3.91-14.54-2.81-.28.08-3.7,1.49-4.91,2l.12-.09a70.41,70.41,0,0,0,8.42-9.1,93.44,93.44,0,0,0,6.3-9.12c1.82-2.91,3.3-5.68,4.59-8.15.69-1.34,1.29-2.58,1.84-3.74l0,.09c0,.07,4.19-3.5,4.43-3.76C462.07,99.68,465.62,92.34,463.4,88.41Z" style="opacity: 0.3; transform-origin: 404.535px 115.921px;" class="animable"></path></g></g></g></g><g id="freepik--Floor--inject-196" class="animable" style="transform-origin: 247.265px 466.49px;"><line x1="493.01" y1="466.49" x2="1.52" y2="466.49" style="fill: none; stroke: rgb(38, 50, 56); stroke-miterlimit: 10; transform-origin: 247.265px 466.49px;" id="elngeaduvk2e" class="animable"></line></g><g id="freepik--Letters--inject-196" class="animable animator-active" style="transform-origin: 286.725px 142.07px;"><g id="elqyul6zrd3e"><g style="opacity: 0.3; transform-origin: 286.725px 142.07px;" class="animable"><path d="M432.06,79.31a19.24,19.24,0,0,1-3.35-2.15A32.11,32.11,0,0,1,425,73.78a24.55,24.55,0,0,1-3.1-4,2.35,2.35,0,0,1-.54.07h-.6c-3.75,0-6.73-.68-8.92-2a11.28,11.28,0,0,1-4.71-5.79,25.43,25.43,0,0,1-1.42-9V34a25.22,25.22,0,0,1,1.42-9,10.93,10.93,0,0,1,4.71-5.69c2.19-1.31,5.17-2,8.92-2s6.8.67,9,2A11.06,11.06,0,0,1,434.5,25a25.19,25.19,0,0,1,1.42,9v19.1a30.25,30.25,0,0,1-.66,6.61,14.26,14.26,0,0,1-2.19,5.09,10.65,10.65,0,0,1-4,3.42c.54.59,1.11,1.18,1.7,1.77s1.18,1.14,1.77,1.64a13.42,13.42,0,0,0,1.71,1.27Zm-11.32-17a4.14,4.14,0,0,0,3-.92A4.61,4.61,0,0,0,425,59a16.75,16.75,0,0,0,.31-3.33V31.43a16.2,16.2,0,0,0-.31-3.29,4.59,4.59,0,0,0-1.27-2.43,4.1,4.1,0,0,0-3-.92,4,4,0,0,0-2.91.92,4.41,4.41,0,0,0-1.23,2.43,17.82,17.82,0,0,0-.29,3.29V55.65A18.43,18.43,0,0,0,416.6,59a4.44,4.44,0,0,0,1.23,2.46A4,4,0,0,0,420.74,62.36Z" style="fill: none; stroke: rgb(0, 0, 0); stroke-miterlimit: 10; transform-origin: 420.815px 48.31px;" id="eldsy8i4og9c" class="animable"></path><path d="M122.23,266.83,100,222l19.53-9.67,3.12,6.3-10.4,5.16,5.9,11.89,8-4,3.15,6.37-8,4,7,14.05,10.51-5.21,3.07,6.2Z" style="fill: none; stroke: rgb(0, 0, 0); stroke-miterlimit: 10; transform-origin: 120.94px 239.58px;" id="elt8w1941zfn" class="animable"></path><path d="M153.77,65.57a10.77,10.77,0,0,1-5.24-1.16,7.33,7.33,0,0,1-3.17-3.48A16.1,16.1,0,0,1,144.12,55l6-1a17.58,17.58,0,0,0,.44,3.51,4.35,4.35,0,0,0,1.09,2.1,2.57,2.57,0,0,0,1.83.69,1.92,1.92,0,0,0,1.82-.84,3.82,3.82,0,0,0,.49-1.93,6.07,6.07,0,0,0-1-3.59A17.16,17.16,0,0,0,152,51l-3.52-3.06a14.26,14.26,0,0,1-3.09-3.61,9.5,9.5,0,0,1-1.2-4.95,8.26,8.26,0,0,1,2.46-6.44,9.6,9.6,0,0,1,6.74-2.25,9.16,9.16,0,0,1,4.19.84,6.46,6.46,0,0,1,2.54,2.24,9.31,9.31,0,0,1,1.26,3.07,19.67,19.67,0,0,1,.44,3.29l-5.92.88a23.79,23.79,0,0,0-.27-2.72,3.74,3.74,0,0,0-.75-1.85,2.1,2.1,0,0,0-1.7-.67,2,2,0,0,0-1.81.9,3.6,3.6,0,0,0-.59,2,5,5,0,0,0,.82,3A14.81,14.81,0,0,0,153.86,44l3.44,3A19.44,19.44,0,0,1,161,51.28a10.57,10.57,0,0,1,1.53,5.85,8.56,8.56,0,0,1-1.09,4.32,7.74,7.74,0,0,1-3,3A9.24,9.24,0,0,1,153.77,65.57Z" style="fill: none; stroke: rgb(0, 0, 0); stroke-miterlimit: 10; transform-origin: 153.328px 48.1253px;" id="elxxdoebvkvxa" class="animable"></path><path d="M459.1,198.81v-34h14.35v4.7H466v9.19h6.3v4.82H466v15.28Z" style="fill: none; stroke: rgb(0, 0, 0); stroke-miterlimit: 10; transform-origin: 466.275px 181.81px;" id="elnprfa9j1hmj" class="animable"></path></g></g></g><g id="freepik--Clipboard--inject-196" class="animable" style="transform-origin: 269.135px 266.325px;"><rect x="138.73" y="94.22" width="260.81" height="372.26" style="fill: rgb(38, 50, 56); stroke: rgb(38, 50, 56); stroke-linecap: round; stroke-linejoin: round; transform-origin: 269.135px 280.35px;" id="elded5ail7y58" class="animable"></rect><rect x="145.91" y="104.47" width="246.45" height="351.77" style="fill: rgb(255, 255, 255); stroke: rgb(38, 50, 56); stroke-linecap: round; stroke-linejoin: round; transform-origin: 269.135px 280.355px;" id="eldt6uvhdvsoe" class="animable"></rect><path d="M294.16,71.46h0a5.29,5.29,0,0,0-5.29-5.29H249.41a5.29,5.29,0,0,0-5.29,5.29h0A15.94,15.94,0,0,1,228.18,87.4h-7.13a10.29,10.29,0,0,0-10.29,10.29v17.76H327.52V97.69A10.29,10.29,0,0,0,317.23,87.4H310.1A15.94,15.94,0,0,1,294.16,71.46Z" style="fill: rgb(186, 186, 186); stroke: rgb(38, 50, 56); stroke-linecap: round; stroke-linejoin: round; transform-origin: 269.14px 90.81px;" id="elnxmfks27ezh" class="animable"></path><line x1="220.43" y1="99.53" x2="315.96" y2="99.53" style="fill: none; stroke: rgb(38, 50, 56); stroke-linecap: round; stroke-linejoin: round; transform-origin: 268.195px 99.53px;" id="elea1wqp0466w" class="animable"></line><line x1="289.08" y1="170.44" x2="362.95" y2="170.44" style="fill: none; stroke: rgb(38, 50, 56); stroke-linecap: round; stroke-linejoin: round; transform-origin: 326.015px 170.44px;" id="elq9375khb7n" class="animable"></line><line x1="291.43" y1="201.16" x2="378.2" y2="201.16" style="fill: none; stroke: rgb(38, 50, 56); stroke-linecap: round; stroke-linejoin: round; transform-origin: 334.815px 201.16px;" id="elxmyl4sqh13" class="animable"></line><line x1="156.39" y1="201.16" x2="279.76" y2="201.16" style="fill: none; stroke: rgb(38, 50, 56); stroke-linecap: round; stroke-linejoin: round; transform-origin: 218.075px 201.16px;" id="elwa8oth38z6s" class="animable"></line><line x1="331.92" y1="237.76" x2="378.2" y2="237.76" style="fill: none; stroke: rgb(38, 50, 56); stroke-linecap: round; stroke-linejoin: round; transform-origin: 355.06px 237.76px;" id="eldq53du8eej" class="animable"></line><line x1="156.39" y1="237.76" x2="316.82" y2="237.76" style="fill: none; stroke: rgb(38, 50, 56); stroke-linecap: round; stroke-linejoin: round; transform-origin: 236.605px 237.76px;" id="elkq89eif9im" class="animable"></line><line x1="338.57" y1="274.37" x2="378.2" y2="274.37" style="fill: none; stroke: rgb(38, 50, 56); stroke-linecap: round; stroke-linejoin: round; transform-origin: 358.385px 274.37px;" id="elupp19ahb4w8" class="animable"></line><line x1="156.39" y1="274.37" x2="294.66" y2="274.37" style="fill: none; stroke: rgb(38, 50, 56); stroke-linecap: round; stroke-linejoin: round; transform-origin: 225.525px 274.37px;" id="elvk7h5qj5d2q" class="animable"></line><line x1="156.39" y1="310.98" x2="378.2" y2="310.98" style="fill: none; stroke: rgb(38, 50, 56); stroke-linecap: round; stroke-linejoin: round; transform-origin: 267.295px 310.98px;" id="el5x2uvk8yjwo" class="animable"></line><line x1="183" y1="347.58" x2="378.2" y2="347.58" style="fill: none; stroke: rgb(38, 50, 56); stroke-linecap: round; stroke-linejoin: round; transform-origin: 280.6px 347.58px;" id="el38z45qeok3t" class="animable"></line><line x1="156.39" y1="347.58" x2="174.08" y2="347.58" style="fill: none; stroke: rgb(38, 50, 56); stroke-linecap: round; stroke-linejoin: round; transform-origin: 165.235px 347.58px;" id="el90s5uaagla" class="animable"></line><line x1="156.39" y1="384.19" x2="378.2" y2="384.19" style="fill: none; stroke: rgb(38, 50, 56); stroke-linecap: round; stroke-linejoin: round; transform-origin: 267.295px 384.19px;" id="el1loaz6vlpj9" class="animable"></line><line x1="156.39" y1="170.44" x2="230.25" y2="170.44" style="fill: none; stroke: rgb(38, 50, 56); stroke-linecap: round; stroke-linejoin: round; transform-origin: 193.32px 170.44px;" id="elch7oi49bdoo" class="animable"></line><line x1="338.57" y1="287.68" x2="378.2" y2="287.68" style="fill: none; stroke: rgb(38, 50, 56); stroke-linecap: round; stroke-linejoin: round; transform-origin: 358.385px 287.68px;" id="el5wkzzn7dft" class="animable"></line><line x1="338.57" y1="300.98" x2="378.2" y2="300.98" style="fill: none; stroke: rgb(38, 50, 56); stroke-linecap: round; stroke-linejoin: round; transform-origin: 358.385px 300.98px;" id="el2vd0kcyebnj" class="animable"></line><path d="M320.86,383.4V352.33H334.4v4.37h-7.21V365h5.56v4.41h-5.56v9.74h7.29v4.3Z" style="fill: rgb(38, 50, 56); transform-origin: 327.67px 367.89px;" id="elxmoq9d1tt9i" class="animable"></path><path d="M343.75,201.36v-26.7h6.92a15.33,15.33,0,0,1,4.63.61,5.46,5.46,0,0,1,3,2.16,7.63,7.63,0,0,1,1,4.28,14.12,14.12,0,0,1-.28,2.92,5.72,5.72,0,0,1-1,2.21,5,5,0,0,1-2,1.5l3.69,13h-5.57l-3.06-12.1h-1.91v12.1ZM349.19,186h1.58a4.14,4.14,0,0,0,2.07-.43,2.33,2.33,0,0,0,1.08-1.3,6.41,6.41,0,0,0,.31-2.16,4.93,4.93,0,0,0-.68-2.82,2.89,2.89,0,0,0-2.52-1h-1.84Z" style="fill: rgb(38, 50, 56); transform-origin: 351.73px 188.008px;" id="el751ja82d16u" class="animable"></path><path d="M320,310.14a12.84,12.84,0,0,1-6.74-1.48,7.88,7.88,0,0,1-3.37-4.29,21,21,0,0,1-1-6.82V271.42h7.69v27.22a18.29,18.29,0,0,0,.21,2.78,4.26,4.26,0,0,0,.94,2.21,2.8,2.8,0,0,0,2.24.85,2.85,2.85,0,0,0,2.29-.85,4.17,4.17,0,0,0,.92-2.21,19.67,19.67,0,0,0,.19-2.78V271.42h7.69v26.13a21.26,21.26,0,0,1-1,6.82,7.93,7.93,0,0,1-3.37,4.29A12.88,12.88,0,0,1,320,310.14Z" style="fill: rgb(38, 50, 56); transform-origin: 319.975px 290.79px;" id="el95rijqmiut6" class="animable"></path><path d="M344.6,171.48s-23.5,3.14-13.62,27,49.23,12.13,39.69-16.63-31.91-6.29-33.75.45" style="fill: none; stroke: rgb(102, 32, 221); stroke-linecap: round; stroke-linejoin: round; stroke-width: 2px; transform-origin: 350.352px 189.431px;" id="el9idxiiqyy1q" class="animable"></path><path d="M299.43,186.86s-9,1.08-12.2,9.69a15.6,15.6,0,0,0,12.2,20.82c10.41,1.79,25.13-7.54,21.54-18.3s-15.08-12.93-23.33-7.9" style="fill: none; stroke: rgb(102, 32, 221); stroke-linecap: round; stroke-linejoin: round; stroke-width: 2px; transform-origin: 303.892px 202.226px;" id="eluqr4qpqsro" class="animable"></path><path d="M310.32,186.11s-.75-19.57-11.3-35.39" style="fill: none; stroke: rgb(102, 32, 221); stroke-linecap: round; stroke-linejoin: round; stroke-width: 2px; transform-origin: 304.67px 168.415px;" id="el24pv244m10n" class="animable"></path><polyline points="297.89 159.38 296.76 147.71 307.68 153.74" style="fill: none; stroke: rgb(102, 32, 221); stroke-linecap: round; stroke-linejoin: round; stroke-width: 2px; transform-origin: 302.22px 153.545px;" id="elq7iw2bbdajd" class="animable"></polyline><path d="M284.15,139.35s10.17,2.12,11.44-8-3.39-5.93-5.51-.85,1.7,12.29,8.47,9.32,13.14-11,11.86-6.78-2.54,8.9.43,6.36,9.74-10.59,8.47-5.51.42,6.35,1.69,4.24,3.41-3.87,5.09-3.39a20.58,20.58,0,0,0,5.08.84h6.35s-3.38,5.51-1.27,4.66,5.09-5.08,5.09-5.08l10.59-.42" style="fill: none; stroke: rgb(102, 32, 221); stroke-linecap: round; stroke-linejoin: round; stroke-width: 2px; transform-origin: 318.04px 132.836px;" id="elp8m0qxwgfrh" class="animable"></path><path d="M323,345.79s-13.06,1.57-17.77,14.11A22.71,22.71,0,0,0,323,390.2c15.15,2.62,36.58-11,31.35-26.65s-21.94-18.81-34-11.49" style="fill: none; stroke: rgb(102, 32, 221); stroke-linecap: round; stroke-linejoin: round; stroke-width: 2px; transform-origin: 329.489px 368.157px;" id="elxcpqap29dc" class="animable"></path><line x1="315.04" y1="388.57" x2="296.26" y2="406.83" style="fill: none; stroke: rgb(102, 32, 221); stroke-linecap: round; stroke-linejoin: round; stroke-width: 2px; transform-origin: 305.65px 397.7px;" id="el7iorct1le7c" class="animable"></line><polyline points="298.35 397.44 293.65 411 310.35 404.74" style="fill: none; stroke: rgb(102, 32, 221); stroke-linecap: round; stroke-linejoin: round; stroke-width: 2px; transform-origin: 302px 404.22px;" id="elefaita2y7ou" class="animable"></polyline><path d="M282.34,419.94s4.05-7.28-.54-5.93-10.51,8.9-6.74,10.51,12.4-5.93,11.6-3.5-1.08,4.85,1.34,1.89,5.13-8.63,5.13-4.32-1.89,4.59,0,4.32,4.31-.81,4.31-.81a11.73,11.73,0,0,0,3.51-.54c1.34-.54,4.58-3.78,3.23-.54s-1.08,4.58,1.62,2.16,5.39-3.51,5.39-2.16-2.69,2.7,0,1.35a10.45,10.45,0,0,1,4.05-1.35h9.7" style="fill: none; stroke: rgb(102, 32, 221); stroke-linecap: round; stroke-linejoin: round; stroke-width: 2px; transform-origin: 299.401px 419.295px;" id="elxy6ff4enti" class="animable"></path><path d="M273.36,439s6.91,1.44,7.77-5.46-2.3-4-3.74-.58,1.15,8.35,5.75,6.33,8.93-7.48,8.06-4.6-1.72,6,.29,4.31,6.62-7.19,5.76-3.74.28,4.32,1.15,2.88,2.31-2.63,3.45-2.3a14.09,14.09,0,0,0,3.46.57h4.31s-2.3,3.75-.86,3.17,3.45-3.45,3.45-3.45l7.2-.29" style="fill: none; stroke: rgb(102, 32, 221); stroke-linecap: round; stroke-linejoin: round; stroke-width: 2px; transform-origin: 296.385px 434.547px;" id="elsicwj31qqie" class="animable"></path></g><g id="freepik--character-3--inject-196" class="animable" style="transform-origin: 411.83px 321px;"><path d="M404.4,202.37l-15.65-20.21-3.82,3.36c3.06,6.33,13.53,23.79,14,24.48S423,228,423,228l3-14.17Z" style="fill: rgb(255, 255, 255); stroke: rgb(38, 50, 56); stroke-linecap: round; stroke-linejoin: round; transform-origin: 405.465px 205.08px;" id="elhalbwu2hdj" class="animable"></path><path d="M383.83,171.6l-3.4,1-2,3s3.79,7.39,3.39,6.39,2-2.4,2.2-3.6,1.8-6.61,1.8-6.61Z" style="fill: rgb(255, 255, 255); stroke: rgb(38, 50, 56); stroke-linecap: round; stroke-linejoin: round; transform-origin: 382.125px 176.842px;" id="elv82q6gskgs" class="animable"></path><path d="M388.63,179.21l.6-10.81L384,166l-5.15.95s.2,1.6.8,1.8a23.14,23.14,0,0,0,3.95-.15l1.6.8s-3.6,11.41-3.4,12.61,3.3,3.92,3.3,3.92l4.5-1.32Z" style="fill: rgb(255, 255, 255); stroke: rgb(38, 50, 56); stroke-linecap: round; stroke-linejoin: round; transform-origin: 384.225px 175.965px;" id="elrhlclhwqak" class="animable"></path><path d="M378.13,169.62l-3.51,1.07a.38.38,0,0,0,0,.71l3.6.77Z" style="fill: rgb(255, 255, 255); stroke: rgb(38, 50, 56); stroke-linecap: round; stroke-linejoin: round; transform-origin: 376.298px 170.895px;" id="elawaehd8zr6d" class="animable"></path><path d="M378.72,172.23a1.41,1.41,0,0,1-.17-2.81l15.52-1.49a1.4,1.4,0,0,1,1.57,1.22,1.42,1.42,0,0,1-1.22,1.58l-15.52,1.49Z" style="fill: rgb(255, 255, 255); stroke: rgb(38, 50, 56); stroke-linecap: round; stroke-linejoin: round; transform-origin: 386.479px 170.074px;" id="el6kz0ijqjppg" class="animable"></path><path d="M388.82,182.27l-.59-5.66-2.4-4.81c-.4-.8-.6-3.8-2.2-3.2s-1.6,2.8-1.2,3.4a25.31,25.31,0,0,1,1.2,3.61s-1.4,4-1.2,4.8a11.13,11.13,0,0,0,1.8,2.6" style="fill: rgb(255, 255, 255); stroke: rgb(38, 50, 56); stroke-linecap: round; stroke-linejoin: round; transform-origin: 385.514px 175.766px;" id="ela6jwfnm7gj" class="animable"></path><path d="M380.06,173.34s2.06,2.82,2.82,3.15" style="fill: none; stroke: rgb(38, 50, 56); stroke-linecap: round; stroke-linejoin: round; transform-origin: 381.47px 174.915px;" id="elk0pc1zg09zf" class="animable"></path><path d="M379,176.81a20.52,20.52,0,0,0,3.14,1.74" style="fill: none; stroke: rgb(38, 50, 56); stroke-linecap: round; stroke-linejoin: round; transform-origin: 380.57px 177.68px;" id="ely2plk4y28fi" class="animable"></path><path d="M388.82,182.27l-3.69,3.66c3.32,6.86,10.7,25.31,11.18,26S423,228,423,228l3-14.17L404.4,202.37Z" style="fill: rgb(102, 32, 221); stroke: rgb(38, 50, 56); stroke-linecap: round; stroke-linejoin: round; transform-origin: 405.565px 205.135px;" id="el4poy493ztq7" class="animable"></path><path d="M427.16,266.72,429,284.94l18.17.66,12.15-4.74a27.3,27.3,0,0,0-6.7-21.83Z" style="fill: rgb(38, 50, 56); stroke: rgb(38, 50, 56); stroke-linecap: round; stroke-linejoin: round; transform-origin: 443.362px 272.315px;" id="elu2b5g47g9s" class="animable"></path><path d="M420.51,218.81s-5.84,21.27-2.92,28.06a22.12,22.12,0,0,0,8,9.8s-.06,8.66,1.56,10.05,12.67-1.26,16.25-2.29,9.08-3.28,9.22-5.4-4-13.17-4.13-13.85-6.4-18.24-8.71-22.56a50.36,50.36,0,0,0-6.77-9Z" style="fill: rgb(102, 32, 221); stroke: rgb(38, 50, 56); stroke-linecap: round; stroke-linejoin: round; transform-origin: 434.698px 240.367px;" id="el8994nyry7c" class="animable"></path><path d="M430.42,354.87l-2.29,4.29s-5.77,3.84-5.55,4.27,1.68.83,3.05.62,4.8-1.06,4.8-1.06l6.8-3.23s2.64-1,2.21-2.82a36.5,36.5,0,0,0-2.41-5.53Z" style="fill: rgb(255, 255, 255); stroke: rgb(38, 50, 56); stroke-linecap: round; stroke-linejoin: round; transform-origin: 431.031px 357.759px;" id="el3oiyb4xkx0t" class="animable"></path><path d="M428.69,273.88s-20.81,37.5-18.83,41.36,20.56,39.63,20.56,39.63l6.61-3.46-11-35.52,17.19-20.29-.39-20.43" style="fill: rgb(38, 50, 56); stroke: rgb(38, 50, 56); stroke-linecap: round; stroke-linejoin: round; transform-origin: 426.474px 314.375px;" id="eljtturd6gpbq" class="animable"></path><path d="M451.3,383.27s-4.86,5.81-5.33,6.45-6.9,3.45-6.87,4.57,3.18,1.48,3.73,1.39,8.13-1.93,9.19-1.83,9-2.82,9.19-3.69-2.4-7.35-2.4-7.35Z" style="fill: rgb(255, 255, 255); stroke: rgb(38, 50, 56); stroke-linecap: round; stroke-linejoin: round; transform-origin: 450.16px 389.252px;" id="elcxvmqvuj8fb" class="animable"></path><polyline points="434.06 272.7 439.8 329.96 450.34 384.78 459.26 384.09 455.01 327.96 459.33 280.86" style="fill: rgb(38, 50, 56); stroke: rgb(38, 50, 56); stroke-linecap: round; stroke-linejoin: round; transform-origin: 446.695px 328.74px;" id="el6xmw9wra3mc" class="animable"></polyline><path d="M420.51,218.81a18.45,18.45,0,0,0-5-8.52s-3.94.93-5.56.68-1.5-3.13-1.27-4.39-.7-5.27-.7-5.27a12.5,12.5,0,0,1-1.71-2.24c-.16-.55,2.6-1.89,3.18-2.77s.09-2.17.38-4.87,2.81-6.94,2.81-6.94.84-1.57,3.64-1.17,8.69,8.23,11.39,11.16,3.16,9,3,10.26-1.68,3.45-1.74,4.86-.68,2.56,1.76,4.91" style="fill: rgb(255, 255, 255); stroke: rgb(38, 50, 56); stroke-linecap: round; stroke-linejoin: round; transform-origin: 418.481px 201.032px;" id="elakkn4hxaoye" class="animable"></path><line x1="411.33" y1="194.95" x2="410.96" y2="197.05" style="fill: none; stroke: rgb(38, 50, 56); stroke-linecap: round; stroke-linejoin: round; transform-origin: 411.145px 196px;" id="ellhoaa1vqqoi" class="animable"></line><path d="M410.43,192.66s1.37-2.62,2.38.38" style="fill: none; stroke: rgb(38, 50, 56); stroke-linecap: round; stroke-linejoin: round; transform-origin: 411.62px 192.32px;" id="elik24l06lnfg" class="animable"></path><path d="M410.6,202.39l.4.72a2.46,2.46,0,0,1-1.86.63" style="fill: none; stroke: rgb(38, 50, 56); stroke-linecap: round; stroke-linejoin: round; transform-origin: 410.07px 203.069px;" id="eltmapsmd75fj" class="animable"></path><path d="M438.5,203.69c0-1.63,2.45-6,1.91-9.51s-6.54-10.83-6.54-10.83c-4.48-5.61-13.53-5.43-15.18-4.77s-2.17-.09-5.1.7-2.89,4.4-2.89,4.4l.32,1.1.34.56c.34.55,3-1.87,2.54-.26s1.82,4.41,3.92,6.13,1,2.75.74,4,3.19,1.57,3.19,1.57a5.17,5.17,0,0,1,1.17.4c-1,1.55-1.81,2.7-1.81,2.7l.58,3.05s-.58,1.57,0,5.37-.55,12.77-.55,12.77l10.33-2.72a30.57,30.57,0,0,0,7.06-4.61c4.44-4.44,5.71-5.17,5.71-5.17S438.5,205.32,438.5,203.69Z" style="fill: rgb(38, 50, 56); stroke: rgb(38, 50, 56); stroke-linecap: round; stroke-linejoin: round; transform-origin: 427.47px 199.662px;" id="el7a6dibc378b" class="animable"></path><path d="M420.64,197.47s3.42-4,5.13-1.6-2.44,6.77-4.08,7.07a1.82,1.82,0,0,1-2.14-.81" style="fill: rgb(255, 255, 255); stroke: rgb(38, 50, 56); stroke-linecap: round; stroke-linejoin: round; transform-origin: 422.863px 199.067px;" id="el6h9oxs4h5qi" class="animable"></path><rect x="385" y="329.62" width="45.85" height="5.14" style="fill: rgb(255, 255, 255); stroke: rgb(38, 50, 56); stroke-linecap: round; stroke-linejoin: round; transform-origin: 407.925px 332.19px;" id="el3oh7gb44mr6" class="animable"></rect><polygon points="443.54 365.11 442.93 361.08 429.3 361.08 427.11 365.11 443.54 365.11" style="fill: rgb(255, 255, 255); stroke: rgb(38, 50, 56); stroke-linecap: round; stroke-linejoin: round; transform-origin: 435.325px 363.095px;" id="elb3bf6tff2j6" class="animable"></polygon><polygon points="454.37 398.33 453.76 394.29 440.13 394.29 437.94 398.33 454.37 398.33" style="fill: rgb(255, 255, 255); stroke: rgb(38, 50, 56); stroke-linecap: round; stroke-linejoin: round; transform-origin: 446.155px 396.31px;" id="eluxshd7pf2ki" class="animable"></polygon><polygon points="465.95 431.54 465.34 427.51 451.71 427.51 449.51 431.54 465.95 431.54" style="fill: rgb(255, 255, 255); stroke: rgb(38, 50, 56); stroke-linecap: round; stroke-linejoin: round; transform-origin: 457.73px 429.525px;" id="elnptopdz7ea" class="animable"></polygon><path d="M352.52,476c18.7-62.1,47.91-156.72,50.82-161.82,2.87-4.47,10.1-4.93,10.25-4.94a3,3,0,0,0-.29-6c-.43,0-10.43.58-15,7.68-3.8,5.9-43.85,137.86-52,165Z" style="fill: rgb(255, 255, 255); stroke: rgb(38, 50, 56); stroke-linecap: round; stroke-linejoin: round; transform-origin: 381.372px 389.618px;" id="elzovb8kfp4jr" class="animable"></path><polygon points="408.13 304.23 409.95 309.54 411.92 309.38 409.8 303.77 408.13 304.23" style="fill: rgb(38, 50, 56); stroke: rgb(38, 50, 56); stroke-linecap: round; stroke-linejoin: round; transform-origin: 410.025px 306.655px;" id="el1gqnrlkgszw" class="animable"></polygon><path d="M471,476h6.36L398.59,254a3,3,0,0,0-5.62,2Z" style="fill: rgb(255, 255, 255); stroke: rgb(38, 50, 56); stroke-linecap: round; stroke-linejoin: round; transform-origin: 435.124px 364.152px;" id="elhzislvrsich" class="animable"></path><path d="M421.27,229a12.65,12.65,0,0,0,2.38,4.41c2,2.68,23.93,9,23.93,9s4,8.65,6.07,12.26,8.68,20.48,8.68,20.48l6-3-10.44-36.44a2.62,2.62,0,0,0-1.21-1.54l-22.3-12.62" style="fill: rgb(102, 32, 221); stroke: rgb(38, 50, 56); stroke-linecap: round; stroke-linejoin: round; transform-origin: 444.8px 248.35px;" id="elhtcdh8ucw3" class="animable"></path><path d="M472.45,280.92c-.19-.44-.58-1.19-.95-1.88,0-.05,0-.1,0-.15-.12-1.95-3.2-6.63-3.2-6.63l-6,3,.61,6.92-.26,3.94a1.38,1.38,0,0,0,2-.34,6.5,6.5,0,0,0,.6-3.45l1.51,2.53,2.61,5a1.72,1.72,0,0,0,1.52-.27c.69-.55-2-5.16-2-5.16l1.43,1.74s.55,3.45,1.1,3.86,1.52,0,1.38-.41a9.43,9.43,0,0,1,0-3.43A13.2,13.2,0,0,0,472.45,280.92Z" style="fill: rgb(255, 255, 255); stroke: rgb(38, 50, 56); stroke-linecap: round; stroke-linejoin: round; transform-origin: 467.61px 281.23px;" id="elztz7sphzxc" class="animable"></path><line x1="468.74" y1="282.95" x2="468.95" y2="284.42" style="fill: none; stroke: rgb(38, 50, 56); stroke-linecap: round; stroke-linejoin: round; transform-origin: 468.845px 283.685px;" id="elwjtj5w1f86j" class="animable"></line><polyline points="470.49 281.2 470.93 282.3 472.88 286.19" style="fill: none; stroke: rgb(38, 50, 56); stroke-linecap: round; stroke-linejoin: round; transform-origin: 471.685px 283.695px;" id="elrquc0bylc7" class="animable"></polyline><line x1="471.76" y1="279.1" x2="472.45" y2="280.92" style="fill: none; stroke: rgb(38, 50, 56); stroke-linecap: round; stroke-linejoin: round; transform-origin: 472.105px 280.01px;" id="eluaf3hl7rj5" class="animable"></line></g><g id="freepik--character-2--inject-196" class="animable" style="transform-origin: 237.806px 313.295px;"><path d="M253.67,460.92l1.69-1s-.17-3.55.17-4.23,15.54-40,15.54-40-4.73-26.68-8.28-34.79S255.53,366,255.53,366l-3.72-9.62-38.17-.51-.34,2.7-3.72,62.33L197.76,459.4s-2,9.46-2.2,10.47,1.69,4.39,4.06,5.24,7.43.67,8.1-1.35-.16-10.81-.16-10.81l.33-3.21,18.41-34.8s6.09-30.91,6.59-31.25,5.24-4.22,5.24-4.22l15.71,28.21-9.63,39.69-.85,5.07s-1,7.43-.33,8.28,3,.67,4.05,1,6.76,3.72,8.61,3.55,6.9.51,7.24-1.52-2.34-4.39-4.2-6.59S253.67,460.92,253.67,460.92Z" style="fill: rgb(38, 50, 56); stroke: rgb(38, 50, 56); stroke-linecap: round; stroke-linejoin: round; transform-origin: 233.308px 415.73px;" id="elhhngv6mobel" class="animable"></path><path d="M268.12,260l-4-1.86s-4.66.4-5.19.13-2.53-.67-2.93-1.73,1.86-.67,1.86-.67l2.13.8s2.8-3.46,5.46-2.79l2.66.66s2.14-1.2,3.2-.4,2,4.53,2,4.53Z" style="fill: rgb(255, 255, 255); stroke: rgb(38, 50, 56); stroke-linecap: round; stroke-linejoin: round; transform-origin: 264.631px 256.897px;" id="eldbfl6xwet9s" class="animable"></path><path d="M205.31,261a15.62,15.62,0,0,1,2.8-1.07c.53,0,2.53.67,3.73,0a21.66,21.66,0,0,1,2.26-1.2,8.43,8.43,0,0,0,2.66-1.2c.8-.66,1.34-2.39.27-2.13s-1.6.93-2.13,1.07-3.33-.67-4.26-.8-2.93-.93-4.13-.93-2.4-1.07-4.26-.27-2.85,6.27-2.85,6.27Z" style="fill: rgb(255, 255, 255); stroke: rgb(38, 50, 56); stroke-linecap: round; stroke-linejoin: round; transform-origin: 208.514px 257.587px;" id="elyynf6bx6n3l" class="animable"></path><path d="M230,296.59l-21.85-4.76-10.86-8.74,8-22.13-7.19-.54s-14.89,25-14.49,27.55c.2,1.25,5.73,9.93,12.3,16.41a78.84,78.84,0,0,0,14.47,11l1.25,53,47.15.61,2.34-53.09s3.19-4.12,3.59-4.79a56.5,56.5,0,0,0,12.2-9.42c7.3-7.6,15.1-19.08,15.1-19.08l-17.78-25.35L268.12,260l9.66,21.36-15.31,12-14.71,4.49Z" style="fill: rgb(102, 32, 221); stroke: rgb(38, 50, 56); stroke-linecap: round; stroke-linejoin: round; transform-origin: 237.806px 313.125px;" id="eloaarzvi27qe" class="animable"></path><path d="M228.39,298.93s.69,9.07,4.4,13.3" style="fill: none; stroke: rgb(38, 50, 56); stroke-linecap: round; stroke-linejoin: round; transform-origin: 230.59px 305.58px;" id="elit4wr4ilthg" class="animable"></path><path d="M247.41,311.41c-1.24,4.08-3.2,8.42-6.25,11.11" style="fill: none; stroke: rgb(38, 50, 56); stroke-linecap: round; stroke-linejoin: round; transform-origin: 244.285px 316.965px;" id="el3stt1lzl0ya" class="animable"></path><path d="M249.43,301.07a53.23,53.23,0,0,1-1.29,7.63" style="fill: none; stroke: rgb(38, 50, 56); stroke-linecap: round; stroke-linejoin: round; transform-origin: 248.785px 304.885px;" id="eljxqw5z8jiie" class="animable"></path><path d="M258.06,325c-.32,1.29-.67,2.62-1,4" style="fill: none; stroke: rgb(38, 50, 56); stroke-linecap: round; stroke-linejoin: round; transform-origin: 257.56px 327px;" id="elq84hosuqoos" class="animable"></path><path d="M261.76,308.16s-1.07,5.88-3,14.06" style="fill: none; stroke: rgb(38, 50, 56); stroke-linecap: round; stroke-linejoin: round; transform-origin: 260.26px 315.19px;" id="el6lsazy9nsqj" class="animable"></path><path d="M217.13,332.87c.54,1.88,1.12,3.69,1.73,5.36" style="fill: none; stroke: rgb(38, 50, 56); stroke-linecap: round; stroke-linejoin: round; transform-origin: 217.995px 335.55px;" id="el868ifhhuz9d" class="animable"></path><path d="M211.43,302.76a235.48,235.48,0,0,0,4.84,26.9" style="fill: none; stroke: rgb(38, 50, 56); stroke-linecap: round; stroke-linejoin: round; transform-origin: 213.85px 316.21px;" id="el0tsg5ph1bfta" class="animable"></path><path d="M250.13,270.25s-1.38-4-7.39-4.32-5.54,3.39-5.54,3.39l-1.39.93-.15,1.38a39.7,39.7,0,0,0-5.54,8.78c-2.38,5.89.67,7.49,2,9.27,1.07,1.39-.51,4.28-1.44,6.59s-1.72,1.25-1.72,1.25l8.3,5.8,11.45-4.54a9.21,9.21,0,0,1,0-3.9c.46-2,5.39-2.31,7.23-7.85s-.92-10.78-2.46-12.63S250.13,270.25,250.13,270.25Z" style="fill: rgb(255, 255, 255); stroke: rgb(38, 50, 56); stroke-linecap: round; stroke-linejoin: round; transform-origin: 242.755px 284.615px;" id="elqcqe3dg1j6" class="animable"></path><path d="M253.52,274.4c-1.54-1.84-3.39-4.15-3.39-4.15a6.32,6.32,0,0,0-3.81-6.35c-4.4-2.13-5.77-.61-4.4.15a1.43,1.43,0,0,1,.82,1.88s-4.77-2.18-6.29-.06a5,5,0,0,0-.64,4.38l-.15,1.38a10.66,10.66,0,0,1,2.13-1.64,54.53,54.53,0,0,0,6-1.18c4.64.94,6.53,4.54,6.15,5.67a5,5,0,0,0-.38,3.5c.38,1.9.29,4.17.95,4.07s1.19-.86,3,.29c1.51.94,2.27,4.35-.29,5.48a6.17,6.17,0,0,1-4.35.48s1,3.78,1.89,4.63h0A10.55,10.55,0,0,0,256,287C257.83,281.48,255.06,276.25,253.52,274.4Z" style="fill: rgb(38, 50, 56); stroke: rgb(38, 50, 56); stroke-linecap: round; stroke-linejoin: round; transform-origin: 246.085px 277.871px;" id="el856b1qliidu" class="animable"></path><path d="M234.73,276.19a3.09,3.09,0,0,1-1.14-2.56c.19-1.51,3.41-.09,3.41-.09" style="fill: rgb(255, 255, 255); stroke: rgb(38, 50, 56); stroke-linecap: round; stroke-linejoin: round; transform-origin: 235.293px 274.562px;" id="eli3v9nmxqbb" class="animable"></path><path d="M242.17,273.57a.79.79,0,0,0,0,1.1.78.78,0,0,0,1.05-.3.77.77,0,0,0,0-1.09A.78.78,0,0,0,242.17,273.57Z" style="fill: rgb(38, 50, 56); transform-origin: 242.697px 273.974px;" id="elid1npsk407n" class="animable"></path><path d="M240.59,272s3-2.55,4.55.57" style="fill: none; stroke: rgb(38, 50, 56); stroke-miterlimit: 10; transform-origin: 242.865px 271.794px;" id="elp5kg6ew1reo" class="animable"></path><path d="M237.76,272a2.18,2.18,0,0,0-2.1-.39" style="fill: none; stroke: rgb(38, 50, 56); stroke-linecap: round; stroke-linejoin: round; transform-origin: 236.71px 271.747px;" id="elylt60sgbdcs" class="animable"></path><path d="M233.4,278.46a4.51,4.51,0,0,1,3,.28" style="fill: none; stroke: rgb(38, 50, 56); stroke-linecap: round; stroke-linejoin: round; transform-origin: 234.9px 278.531px;" id="ele25foorxx6" class="animable"></path><path d="M247.69,287.73a3.69,3.69,0,0,1-1.89,1.42c-1,.19-3.88-.85-3.88-.85" style="fill: none; stroke: rgb(38, 50, 56); stroke-linecap: round; stroke-linejoin: round; transform-origin: 244.805px 288.452px;" id="eligz98j2pdo" class="animable"></path><path d="M209.86,256,196.25,151H214.4l7.26,64.17,9.2-64h14.39L254.84,215l7.26-64H280L266.51,256H248.36l-10.24-66.5L228.4,256Z" style="fill: rgb(38, 50, 56); transform-origin: 238.125px 203.5px;" id="elgrwv9x1j77" class="animable"></path></g><g id="freepik--character-1--inject-196" class="animable" style="transform-origin: 95.2948px 331.139px;"><path d="M58,262.88s5.18,3.54,3.36,6.74-3.79,1.61-3.79,1.61l-2.2-6.11S56.15,262.87,58,262.88Z" style="fill: rgb(38, 50, 56); stroke: rgb(38, 50, 56); stroke-linecap: round; stroke-linejoin: round; transform-origin: 58.5588px 267.252px;" id="elg3tcmye84mj" class="animable"></path><path d="M54.13,262.75s4.29,1.94,5.1,5.84.07,6.14.63,7.27,2.76,2.55,2.24,3.56a5.37,5.37,0,0,1-2,1.76s-1.56,3.16-2.48,5.16-.93,2.94-1.94,3.35a12.88,12.88,0,0,1-3.86.14S50,291,50.27,292.32a17.8,17.8,0,0,1,0,4.14l-8.5-.54,2.23-31.61A10.7,10.7,0,0,1,54.13,262.75Z" style="fill: rgb(255, 255, 255); stroke: rgb(38, 50, 56); stroke-linecap: round; stroke-linejoin: round; transform-origin: 51.9744px 279.287px;" id="elnnbg4qip8v8" class="animable"></path><ellipse cx="57.67" cy="275.96" rx="0.75" ry="1.25" style="fill: rgb(38, 50, 56); transform-origin: 57.67px 275.96px;" id="elufmzbsyqgzq" class="animable"></ellipse><path d="M55.91,272.83s1.25-2.12,2.63-.87" style="fill: none; stroke: rgb(38, 50, 56); stroke-linecap: round; stroke-linejoin: round; transform-origin: 57.225px 272.198px;" id="elzmp8o5hy0f" class="animable"></path><path d="M58,283.09a2.37,2.37,0,0,1-2.38-.87" style="fill: none; stroke: rgb(38, 50, 56); stroke-linecap: round; stroke-linejoin: round; transform-origin: 56.81px 282.682px;" id="elftncqlbc4nl" class="animable"></path><path d="M60.05,263.93s-7.08,1.93-8.14,6.76-.48,11.84-.42,14.1-1.11,2.56-.59,3.43,3.12,1.3,3.1,4-4,4.85-3.38,5.43,1.77,2.15,1.62,3-3.94-3.32-7.75-2.79-5.77.81-7.19,3a13.9,13.9,0,0,1-4.11,4.06c-1.33,1,1.07,6.67-.68,8.52a9.26,9.26,0,0,0-2,5,3,3,0,0,1,.67,2.84c-.6,1.43-1.77,1.72-1.9,2.68a4.47,4.47,0,0,0,.73,2.3s-3.41-2.33-4.71-4.95.83-6.4.83-6.4-2.08.42-3.21-2.89-1.52-7,.2-9,3-1.76,1.25-4.46-2.18-6.91,0-8.69,4.63-5.06,3.92-6.3S25,281.71,26,278.62a12.47,12.47,0,0,1,3.78-5.48c.71-.64,3.35-.88,2.93-5.76s9.44-9.89,15.33-8.85l5.9,1S62.33,257.32,60.05,263.93Z" style="fill: rgb(38, 50, 56); stroke: rgb(38, 50, 56); stroke-linecap: round; stroke-linejoin: round; transform-origin: 41.1964px 292.326px;" id="eljgjn0haetid" class="animable"></path><path d="M29,394.45l-.31,13.06s-5,10.41-6.37,16.48-10.26,33-10.26,33-2.49,3.11-2,5.28,13.06,6.53,15.86,7.46,7.46,1.87,8.08.78-3.58-4.35-3.58-4.35-6.68-7.93-6.84-8.86-.77-.62,0-3,16.33-36.22,17-37.62,3.11-5.75,4-8.24,2.8-13.52,2.8-13.52l7.15,18.34s-.93,12.28,2.49,19.43,7.15,21.92,7.46,23.48-.15,4.51.16,6.68.77,2.34,1.4,2.65,6.52-.62,7.92-.62,5.45,2,7.93,2.33,7.47-.16,8.4-1.09-1.87-2.33-2.8-2.33-12.13-7.62-12.75-8.4a15,15,0,0,1-1.4-2.95l-5.13-39-3.42-18.35Z" style="fill: rgb(255, 255, 255); stroke: rgb(38, 50, 56); stroke-linecap: round; stroke-linejoin: round; transform-origin: 50.2364px 432.725px;" id="elcc24tuzwng" class="animable"></path><polygon points="28.9 399.12 46.43 399.24 46.92 396.54 48.52 396.91 49.5 399.97 64.95 397.89 47.35 394.92 29.14 396.42 28.9 399.12" style="fill: rgb(38, 50, 56); stroke: rgb(38, 50, 56); stroke-linecap: round; stroke-linejoin: round; transform-origin: 46.925px 397.445px;" id="elt6rx5v1zp17" class="animable"></polygon><polygon points="99.71 295.18 73.71 310.24 53.45 304.14 58.47 317.59 74.61 319.38 98.63 301.45 99.71 295.18" style="fill: rgb(255, 255, 255); stroke: rgb(38, 50, 56); stroke-linecap: round; stroke-linejoin: round; transform-origin: 76.58px 307.28px;" id="eltl5yfv5ojo" class="animable"></polygon><path d="M36.5,298.25s-3.48,2.23-5.71,9.43,3,22.95,3,22.95l.49,2.36s-.49,1.37.37,1.37-3.47,5.83-6.7,14.76-2.85,4.1-2.85,12.66S24,397.52,24,397.52l42.44.25s-5.09-40.46-5.09-41.45.25-20.6.25-20.6,1-17.12-.87-22.71a30.36,30.36,0,0,0-11.41-14.64C44.44,295.27,39.1,296.26,36.5,298.25Z" style="fill: rgb(102, 32, 221); stroke: rgb(38, 50, 56); stroke-linecap: round; stroke-linejoin: round; transform-origin: 45.22px 347.079px;" id="elxyfd8o9mq2" class="animable"></path><path d="M25.58,459l-6.06,7.93s-10.26-3.42-10.73-3S7.71,474.05,9,475s6.53.16,6.53.16,19,2.48,20.68,2,2-5.91,1.4-6.07-11.66-1.4-11.66-1.4l3.73-5.28Z" style="fill: rgb(199, 199, 199); stroke: rgb(38, 50, 56); stroke-linecap: round; stroke-linejoin: round; transform-origin: 23.0583px 468.111px;" id="eln5mz9bgi44" class="animable"></path><path d="M64.45,466.59s0,6.06.47,6.68a4.69,4.69,0,0,0,3.88.93,75.47,75.47,0,0,1,7.62-1.09c1.25,0,10.88.78,13.06.16s4.35-2.33,4.35-3.26a39,39,0,0,0-.77-4.36l-7.15,1.25.62-4.2-6.07-3.42-2.79,6.53Z" style="fill: rgb(199, 199, 199); stroke: rgb(38, 50, 56); stroke-linecap: round; stroke-linejoin: round; transform-origin: 79.14px 466.789px;" id="el4p6gzhxtrh" class="animable"></path><path d="M108,290s.9,1.43.54,2.33-3.4,1.79-3.4,1.79Z" style="fill: rgb(255, 255, 255); stroke: rgb(38, 50, 56); stroke-linecap: round; stroke-linejoin: round; transform-origin: 106.882px 292.06px;" id="el9ge3bcmrkxr" class="animable"></path><path d="M106.88,292.49s.89,1.43.54,2.33-3.41,1.79-3.41,1.79Z" style="fill: rgb(255, 255, 255); stroke: rgb(38, 50, 56); stroke-linecap: round; stroke-linejoin: round; transform-origin: 105.756px 294.55px;" id="elmftdelsbm6s" class="animable"></path><path d="M106,294.64s.9,1.43.54,2.33-3.41,1.79-3.41,1.79Z" style="fill: rgb(255, 255, 255); stroke: rgb(38, 50, 56); stroke-linecap: round; stroke-linejoin: round; transform-origin: 104.877px 296.7px;" id="elfxww1i27oiq" class="animable"></path><path d="M104.19,295.89s.9,1.44.54,2.34-3.41,1.79-3.41,1.79Z" style="fill: rgb(255, 255, 255); stroke: rgb(38, 50, 56); stroke-linecap: round; stroke-linejoin: round; transform-origin: 103.068px 297.955px;" id="eljlaq8enha8q" class="animable"></path><path d="M174.61,264.19A51.85,51.85,0,0,1,111.2,285a7.59,7.59,0,0,1-.36.69l-16.68,27a10.24,10.24,0,0,1-1,1.28,14,14,0,0,1-1.29,12L63,372.68A14,14,0,1,1,39.24,358l28.89-46.74a13.93,13.93,0,0,1,10.13-6.5,9.16,9.16,0,0,1,.71-1.44l16.68-27c.14-.22.3-.43.45-.63a51.85,51.85,0,1,1,78.51-11.51ZM94.77,214.82a42,42,0,1,0,57.84-13.64A42,42,0,0,0,94.77,214.82Z" style="fill: rgb(38, 50, 56); transform-origin: 109.48px 282.621px;" id="el0f6arxy6gj8" class="animable"></path><path d="M35,302a16.73,16.73,0,0,0-1.12,10.32c1.12,6.19,3.48,7.55,3.48,7.55s8.56,24.33,9.18,24.57a2.37,2.37,0,0,0,2.36-.37c.62-.62,24.45-17.37,24.45-17.37s6.2-.5,6.57-.5a19.18,19.18,0,0,0,2.86-1.86l3.35-1.49s.87-1.36.25-1.49-8.44-1.61-8.82-2,4.35-1.49,4.35-1.49-.25-1.61-1.24-1.37-3.11.87-4.47,1.24a7.42,7.42,0,0,0-4.22,3.6,5.17,5.17,0,0,1-2.36,2.48l-17.12,6.09s-.13-18.49-1.24-24.2-5-8.44-8.57-8.57S36.64,298.85,35,302Z" style="fill: rgb(255, 255, 255); stroke: rgb(38, 50, 56); stroke-linecap: round; stroke-linejoin: round; transform-origin: 60.0623px 320.868px;" id="el4kj81av4dv6" class="animable"></path><line x1="37.39" y1="319.82" x2="35.4" y2="312.25" style="fill: none; stroke: rgb(38, 50, 56); stroke-linecap: round; stroke-linejoin: round; transform-origin: 36.395px 316.035px;" id="eln9uf0aav2eg" class="animable"></line></g><defs>     <filter id="active" height="200%">         <feMorphology in="SourceAlpha" result="DILATED" operator="dilate" radius="2"></feMorphology>                <feFlood flood-color="#32DFEC" flood-opacity="1" result="PINK"></feFlood>        <feComposite in="PINK" in2="DILATED" operator="in" result="OUTLINE"></feComposite>        <feMerge>            <feMergeNode in="OUTLINE"></feMergeNode>            <feMergeNode in="SourceGraphic"></feMergeNode>        </feMerge>    </filter>    <filter id="hover" height="200%">        <feMorphology in="SourceAlpha" result="DILATED" operator="dilate" radius="2"></feMorphology>                <feFlood flood-color="#ff0000" flood-opacity="0.5" result="PINK"></feFlood>        <feComposite in="PINK" in2="DILATED" operator="in" result="OUTLINE"></feComposite>        <feMerge>            <feMergeNode in="OUTLINE"></feMergeNode>            <feMergeNode in="SourceGraphic"></feMergeNode>        </feMerge>            <feColorMatrix type="matrix" values="0   0   0   0   0                0   1   0   0   0                0   0   0   0   0                0   0   0   1   0 "></feColorMatrix>    </filter></defs></svg>